<?xml version="1.0" encoding="UTF-8" standalone="no"?>
<svg
   xmlns:dc="http://purl.org/dc/elements/1.1/"
   xmlns:cc="http://creativecommons.org/ns#"
   xmlns:rdf="http://www.w3.org/1999/02/22-rdf-syntax-ns#"
   xmlns:svg="http://www.w3.org/2000/svg"
   xmlns="http://www.w3.org/2000/svg"
   xmlns:sodipodi="http://sodipodi.sourceforge.net/DTD/sodipodi-0.dtd"
   xmlns:inkscape="http://www.inkscape.org/namespaces/inkscape"
   width="22"
   height="22"
   version="1.1"
   id="svg5288"
   sodipodi:docname="page.svg"
   inkscape:version="0.92.3 (2405546, 2018-03-11)">
  <metadata
     id="metadata5294">
    <rdf:RDF>
      <cc:Work
         rdf:about="">
        <dc:format>image/svg+xml</dc:format>
        <dc:type
           rdf:resource="http://purl.org/dc/dcmitype/StillImage" />
        <dc:title></dc:title>
      </cc:Work>
    </rdf:RDF>
  </metadata>
  <defs
     id="defs5292" />
  <sodipodi:namedview
     pagecolor="#ffffff"
     bordercolor="#666666"
     borderopacity="1"
     objecttolerance="10"
     gridtolerance="10"
     guidetolerance="10"
     inkscape:pageopacity="0"
     inkscape:pageshadow="2"
     inkscape:window-width="2560"
     inkscape:window-height="1377"
     id="namedview5290"
     showgrid="true"
     inkscape:zoom="41.7193"
     inkscape:cx="4.3841399"
     inkscape:cy="8.4367158"
     inkscape:window-x="1192"
     inkscape:window-y="1432"
     inkscape:window-maximized="1"
     inkscape:current-layer="svg5288">
    <inkscape:grid
       type="xygrid"
       id="grid8175" />
  </sodipodi:namedview>
  <style
     type="text/css"
     id="style5282">.icon-canvas-transparent{opacity:0;fill:#F6F6F6;} .icon-vs-out{opacity:0;fill:#F6F6F6;} .icon-vs-bg{fill:#656565;} .icon-vs-fg{fill:#F0EFF1;}</style>
  <path
     class="icon-canvas-transparent"
     d="M 16,22 H 0 V 6 h 16 z"
     id="canvas"
     inkscape:connector-curvature="0"
     style="opacity:0;fill:#f6f6f6" />
  <path
     class="icon-vs-out"
     d="M 4,21 C 3.03,21 2,20.299 2,19 V 9 C 2,7.701 3.03,7 4,7 h 6.061 L 14,10.556 V 19 c 0,0.97 -0.701,2 -2,2 z"
     id="outline"
     inkscape:connector-curvature="0"
     style="opacity:0;fill:#f6f6f6" />
  <path
     style="fill:#c5c5c5;fill-opacity:1;stroke:none;stroke-width:0.20000002;stroke-linecap:round;stroke-linejoin:round;stroke-miterlimit:4;stroke-dasharray:none;stroke-opacity:1"
     d="M 8,7 C 7.8707804,7 7.7417342,7.041082 7.6427519,7.1396656 l -3.4161783,3.2435684 -1.379877,1.304048 c -0.1979645,0.187314 -0.1979645,0.489646 0,0.678603 l 1.379877,1.307992 3.4161783,3.243568 c 0.1979645,0.187313 0.5165409,0.187313 0.7144875,0 L 9.7371166,15.60937 c 0.197965,-0.187314 0.197965,-0.489644 0,-0.678601 l -3.058934,-2.904598 3.058934,-2.9004888 c 0.197965,-0.1873128 0.197965,-0.490466 0,-0.6786005 L 8.3572529,7.1390063 C 8.2582443,7.0461718 8.1291815,6.9993406 8.0000135,6.9993406 Z"
     id="rect931"
     inkscape:connector-curvature="0" />
  <path
     inkscape:connector-curvature="0"
     id="path8177"
     d="m 14,7 c 0.129219,0 0.258265,0.041082 0.357248,0.1396656 l 3.416178,3.2435684 1.379877,1.304048 c 0.197965,0.187314 0.197965,0.489646 0,0.678603 l -1.379877,1.307992 -3.416178,3.243568 c -0.197965,0.187313 -0.516541,0.187313 -0.714488,0 L 12.262883,15.60937 c -0.197965,-0.187314 -0.197965,-0.489644 0,-0.678601 l 3.058934,-2.904598 -3.058934,-2.9004888 c -0.197965,-0.1873128 -0.197965,-0.490466 0,-0.6786005 l 1.379864,-1.3080754 c 0.09901,-0.092835 0.228071,-0.1396657 0.357239,-0.1396657 z"
     style="fill:#c5c5c5;fill-opacity:1;stroke:none;stroke-width:0.20000002;stroke-linecap:round;stroke-linejoin:round;stroke-miterlimit:4;stroke-dasharray:none;stroke-opacity:1" />
</svg>
