<?xml version="1.0" encoding="UTF-8" standalone="no"?>
<svg
   xmlns:dc="http://purl.org/dc/elements/1.1/"
   xmlns:cc="http://creativecommons.org/ns#"
   xmlns:rdf="http://www.w3.org/1999/02/22-rdf-syntax-ns#"
   xmlns:svg="http://www.w3.org/2000/svg"
   xmlns="http://www.w3.org/2000/svg"
   xmlns:sodipodi="http://sodipodi.sourceforge.net/DTD/sodipodi-0.dtd"
   xmlns:inkscape="http://www.inkscape.org/namespaces/inkscape"
   width="22"
   height="22"
   version="1.1"
   id="svg5288"
   sodipodi:docname="screencast.svg"
   inkscape:version="0.92.3 (2405546, 2018-03-11)">
  <metadata
     id="metadata5294">
    <rdf:RDF>
      <cc:Work
         rdf:about="">
        <dc:format>image/svg+xml</dc:format>
        <dc:type
           rdf:resource="http://purl.org/dc/dcmitype/StillImage" />
        <dc:title></dc:title>
      </cc:Work>
    </rdf:RDF>
  </metadata>
  <defs
     id="defs5292" />
  <sodipodi:namedview
     pagecolor="#ffffff"
     bordercolor="#666666"
     borderopacity="1"
     objecttolerance="10"
     gridtolerance="10"
     guidetolerance="10"
     inkscape:pageopacity="0"
     inkscape:pageshadow="2"
     inkscape:window-width="2560"
     inkscape:window-height="1377"
     id="namedview5290"
     showgrid="true"
     inkscape:zoom="23.627417"
     inkscape:cx="8.4232539"
     inkscape:cy="5.3953736"
     inkscape:window-x="1192"
     inkscape:window-y="1432"
     inkscape:window-maximized="1"
     inkscape:current-layer="svg5288"
     inkscape:snap-bbox="true">
    <inkscape:grid
       originx="0"
       originy="0"
       type="xygrid"
       id="grid8172" />
  </sodipodi:namedview>
    <path
      style="fill:#c5c5c5;fill-opacity:1;stroke:none;stroke-width:0.20000002;stroke-linecap:round;stroke-linejoin:round;stroke-miterlimit:4;stroke-dasharray:none;stroke-opacity:1"
     d="M 5,2 C 4.4211794,2 3.9831529,2.5466154 3.9831529,3.1750769 v 1.748 H 2.7797834 v -1.748 C 2.7797834,1.6989231 3.7906138,0.5384615 5,0.5384615 h 12.406739 c 1.209386,0 2.220216,1.1604616 2.220216,2.6366154 V 13.978769 c 0,1.476154 -1.01083,2.636616 -2.220216,2.636616 H 10 v -1.461539 h 7.406739 c 0.578821,0 1.016847,-0.546615 1.016847,-1.175077 V 3.1750769 C 18.423586,2.5466154 17.98556,2 17.406739,2 Z m 5,11.692308 h 3.008424 c 0.33213,0 0.601684,-0.327385 0.601684,-0.730769 0,-0.403385 -0.269554,-0.73077 -0.601684,-0.73077 H 10 Z m -6.0168471,4.384615 c -0.33213,0 -0.6016847,0.327385 -0.6016847,0.730769 0,0.403385 0.2695547,0.730769 0.6016847,0.730769 h 1.2033694 c 0.33213,0 0.6016847,-0.327384 0.6016847,-0.730769 0,-0.403384 -0.2695547,-0.730769 -0.6016847,-0.730769 z m -3.6101083,-9.5 c 0,-1.2101538 0.8086642,-2.1923076 1.8050541,-2.1923076 h 4.8134777 c 0.9963899,0 1.8050546,0.9821538 1.8050546,2.1923076 V 20.26923 c 0,1.210154 -0.8086647,2.192308 -1.8050546,2.192308 H 2.1780987 c -0.9963899,0 -1.8050541,-0.982154 -1.8050541,-2.192308 z M 2.1780987,7.8461539 c -0.3321299,0 -0.6016847,0.3273841 -0.6016847,0.7307691 V 20.26923 C 1.576414,20.672616 1.8459688,21 2.1780987,21 h 4.8134777 c 0.33213,0 0.6016847,-0.327384 0.6016847,-0.73077 V 8.576923 c 0,-0.403385 -0.2695547,-0.7307691 -0.6016847,-0.7307691 z"
     id="path198" />
</svg>
