<?xml version="1.0" encoding="UTF-8" standalone="no"?>
<svg
   xmlns:dc="http://purl.org/dc/elements/1.1/"
   xmlns:cc="http://creativecommons.org/ns#"
   xmlns:rdf="http://www.w3.org/1999/02/22-rdf-syntax-ns#"
   xmlns:svg="http://www.w3.org/2000/svg"
   xmlns="http://www.w3.org/2000/svg"
   xmlns:sodipodi="http://sodipodi.sourceforge.net/DTD/sodipodi-0.dtd"
   xmlns:inkscape="http://www.inkscape.org/namespaces/inkscape"
   width="22"
   height="22"
   version="1.1"
   id="svg5288"
   sodipodi:docname="webview.svg"
   inkscape:version="0.92.3 (2405546, 2018-03-11)">
  <metadata
     id="metadata5294">
    <rdf:RDF>
      <cc:Work
         rdf:about="">
        <dc:format>image/svg+xml</dc:format>
        <dc:type
           rdf:resource="http://purl.org/dc/dcmitype/StillImage" />
        <dc:title></dc:title>
      </cc:Work>
    </rdf:RDF>
  </metadata>
  <defs
     id="defs5292" />
  <sodipodi:namedview
     pagecolor="#ffffff"
     bordercolor="#666666"
     borderopacity="1"
     objecttolerance="10"
     gridtolerance="10"
     guidetolerance="10"
     inkscape:pageopacity="0"
     inkscape:pageshadow="2"
     inkscape:window-width="2560"
     inkscape:window-height="1377"
     id="namedview5290"
     showgrid="true"
     inkscape:zoom="41.7193"
     inkscape:cx="4.1733126"
     inkscape:cy="7.8702607"
     inkscape:window-x="1192"
     inkscape:window-y="1432"
     inkscape:window-maximized="1"
     inkscape:current-layer="svg5288"
     inkscape:snap-bbox="true">
    <inkscape:grid
       originx="0"
       originy="0"
       type="xygrid"
       id="grid8172" />
  </sodipodi:namedview>
  <style
     type="text/css"
     id="style5282">.icon-canvas-transparent{opacity:0;fill:#F6F6F6;} .icon-vs-out{opacity:0;fill:#F6F6F6;} .icon-vs-bg{fill:#656565;} .icon-vs-fg{fill:#F0EFF1;}</style>
  <path
     class="icon-canvas-transparent"
     d="M 16,22 H 0 V 6 h 16 z"
     id="canvas"
     inkscape:connector-curvature="0"
     style="opacity:0;fill:#f6f6f6" />
  <path
     class="icon-vs-out"
     d="M 4,21 C 3.03,21 2,20.299 2,19 V 9 C 2,7.701 3.03,7 4,7 h 6.061 L 14,10.556 V 19 c 0,0.97 -0.701,2 -2,2 z"
     id="outline"
     inkscape:connector-curvature="0"
     style="opacity:0;fill:#f6f6f6" />
  <path
     style="fill:#c5c5c5;fill-opacity:1;stroke:none;stroke-width:1;stroke-linecap:round;stroke-linejoin:round;stroke-miterlimit:4;stroke-dasharray:none;stroke-opacity:1"
     d="M 3.7753906 4 C 3.3458795 4 3 4.3467621 3 4.7773438 L 3 16.222656 C 3 16.653238 3.3458795 17 3.7753906 17 L 18.224609 17 C 18.654121 17 19 16.653238 19 16.222656 L 19 4.7773438 C 19 4.3467621 18.654121 4 18.224609 4 L 3.7753906 4 z M 5 7 L 17 7 L 17 15 L 5 15 L 5 7 z "
     id="rect8154" />
  <g
     id="g4263"
     transform="translate(0.229641)">
    <path
       inkscape:connector-curvature="0"
       id="rect931"
       d="m 8.999992,8.0003893 c -0.07625,0 -0.152408,0.024243 -0.21082,0.08242 L 6.7732095,9.9969109 5.9589134,10.766459 c -0.1168232,0.110538 -0.1168232,0.288951 0,0.400458 l 0.8142961,0.771875 2.0159625,1.914101 c 0.116823,0.110538 0.304823,0.110538 0.421635,0 l 0.814297,-0.771924 c 0.116823,-0.110538 0.116823,-0.288949 0,-0.400457 L 8.2199585,10.966445 10.025104,9.2548016 c 0.116823,-0.1105374 0.116823,-0.2894349 0,-0.4004572 L 9.210815,8.08242 C 9.152385,8.027636 9.076225,8 9,8 Z"
       style="fill:#c5c5c5;fill-opacity:1;stroke:none;stroke-width:0.20000002;stroke-linecap:round;stroke-linejoin:round;stroke-miterlimit:4;stroke-dasharray:none;stroke-opacity:1" />
    <path
       style="fill:#c5c5c5;fill-opacity:1;stroke:none;stroke-width:0.20000002;stroke-linecap:round;stroke-linejoin:round;stroke-miterlimit:4;stroke-dasharray:none;stroke-opacity:1"
       d="m 12.540726,8.0003893 c 0.07625,0 0.152408,0.024243 0.21082,0.08242 l 2.015962,1.9141018 0.814296,0.7695479 c 0.116824,0.110538 0.116824,0.288951 0,0.400459 l -0.814296,0.771875 -2.015962,1.9141 c -0.116824,0.110538 -0.304823,0.110538 -0.421636,0 l -0.814296,-0.771924 c -0.116823,-0.110538 -0.116823,-0.288949 0,-0.400457 l 1.805145,-1.714067 -1.805145,-1.7116434 c -0.116823,-0.1105374 -0.116823,-0.2894349 0,-0.4004572 L 12.329903,8.08242 C 12.388333,8.027636 12.464492,8 12.540717,8 Z"
       id="path8177"
       inkscape:connector-curvature="0" />
  </g>
</svg>
