<?xml version="1.0" encoding="UTF-8" standalone="no"?>
<!-- Created with Inkscape (http://www.inkscape.org/) -->

<svg
   xmlns:dc="http://purl.org/dc/elements/1.1/"
   xmlns:cc="http://creativecommons.org/ns#"
   xmlns:rdf="http://www.w3.org/1999/02/22-rdf-syntax-ns#"
   xmlns:svg="http://www.w3.org/2000/svg"
   xmlns="http://www.w3.org/2000/svg"
   xmlns:sodipodi="http://sodipodi.sourceforge.net/DTD/sodipodi-0.dtd"
   xmlns:inkscape="http://www.inkscape.org/namespaces/inkscape"
   width="28"
   height="28"
   viewBox="0 0 7.4083337 7.4083337"
   version="1.1"
   id="svg1018"
   inkscape:version="0.92.3 (2405546, 2018-03-11)"
   sodipodi:docname="viewIcon.svg">
  <defs
     id="defs1012">
    <clipPath
       clipPathUnits="userSpaceOnUse"
       id="clipPath18">
      <path
         inkscape:connector-curvature="0"
         d="m 331.77,241.452 h 129.92 v 129.92 H 331.77 Z"
         id="path16" />
    </clipPath>
  </defs>
  <sodipodi:namedview
     id="base"
     pagecolor="#ffffff"
     bordercolor="#666666"
     borderopacity="1.0"
     inkscape:pageopacity="0.0"
     inkscape:pageshadow="2"
     inkscape:zoom="22.4"
     inkscape:cx="11.503711"
     inkscape:cy="22.311795"
     inkscape:document-units="px"
     inkscape:current-layer="layer1"
     showgrid="false"
     inkscape:window-width="2560"
     inkscape:window-height="1377"
     inkscape:window-x="1192"
     inkscape:window-y="1432"
     inkscape:window-maximized="1"
     units="px" />
  <metadata
     id="metadata1015">
    <rdf:RDF>
      <cc:Work
         rdf:about="">
        <dc:format>image/svg+xml</dc:format>
        <dc:type
           rdf:resource="http://purl.org/dc/dcmitype/StillImage" />
        <dc:title></dc:title>
      </cc:Work>
    </rdf:RDF>
  </metadata>
  <g
     inkscape:label="Layer 1"
     inkscape:groupmode="layer"
     id="layer1"
     transform="translate(0,-289.59167)">
    <g
       id="g1659"
       transform="matrix(0.96556044,0,0,0.96556044,0.05905878,11.118557)"
       style="stroke-width:1.0356679">
      <path
         id="path939"
         transform="scale(0.26458333)"
         d="M 11.580078,1091.3711 C 5.180844,1091.4726 0.7109836,1095.9427 0,1102.2402 c 2.3361708,-3.7581 6.8062201,-6.1953 10.767578,-6.1953 3.250375,0 4.976563,1.7261 4.976563,5.1797 H 7.109375 c 0.2032214,-1.422 0.8143122,-2.9451 1.7285156,-3.8594 -3.4535943,1.4222 -5.9941406,4.6716 -5.9941406,8.836 0,4.3902 2.9980794,8.1869 7.496094,9.2461 l -0.01758,-0.018 -2.7460941,-2.7402 c -0.3938381,-0.396 -0.3938381,-1.028 0,-1.42 l 1.7539062,-1.7441 c -1.3189071,-0.8739 -2.1171875,-2.2316 -2.1171875,-4.0352 h 6.1562504 0.002 8.15039 c -1.78e-4,6e-4 1.79e-4,0 0,0 h 1.027344 v -2.6406 c 0,-6.7038 -4.67103,-11.2755 -10.96875,-11.4785 z m 8.835938,17.4707 c -1.085643,0.6857 -2.270324,1.1727 -3.548828,1.4727 l -1.667969,1.664 2.964843,2.9649 c 0.803276,-0.2608 1.553131,-0.5705 2.251954,-0.92 z"
         style="fill:#000000;fill-opacity:1;fill-rule:nonzero;stroke:none;stroke-width:1.38089037"
         inkscape:connector-curvature="0" />
      <path
         style="fill:#000000;fill-opacity:1;stroke:none;stroke-width:0.05480409;stroke-linecap:round;stroke-linejoin:round;stroke-miterlimit:4;stroke-dasharray:none;stroke-opacity:1"
         d="m 3.806358,292.77539 c -0.03507,0 -0.07008,0.0118 -0.09694,0.0399 l -0.927013,0.92688 -0.374443,0.37265 c -0.05372,0.0535 -0.05372,0.13992 0,0.19392 l 0.374443,0.37378 0.927013,0.92688 c 0.05372,0.0535 0.140168,0.0535 0.193883,0 l 0.374443,-0.37379 c 0.05372,-0.0535 0.05372,-0.13993 0,-0.19393 l -0.830071,-0.83002 0.830071,-0.82885 c 0.05372,-0.0535 0.05372,-0.14015 0,-0.19391 l -0.374439,-0.3738 c -0.02687,-0.0265 -0.06189,-0.0399 -0.09694,-0.0399 z"
         id="path949"
         inkscape:connector-curvature="0" />
      <path
         inkscape:connector-curvature="0"
         id="path951"
         d="m 6.106669,292.77539 c 0.03506,0 0.07008,0.0118 0.09694,0.0399 l 0.927012,0.92688 0.374443,0.37265 c 0.05372,0.0535 0.05372,0.13992 0,0.19392 l -0.374443,0.37378 -0.927012,0.92688 c -0.05372,0.0535 -0.140169,0.0535 -0.193883,0 l -0.374439,-0.37387 c -0.05372,-0.0535 -0.05372,-0.13992 0,-0.19392 l 0.830071,-0.83002 -0.830071,-0.82884 c -0.05372,-0.0535 -0.05372,-0.14016 0,-0.19392 l 0.37444,-0.3738 c 0.02687,-0.0265 0.06189,-0.0399 0.09694,-0.0399 z"
         style="fill:#000000;fill-opacity:1;stroke:none;stroke-width:0.05480409;stroke-linecap:round;stroke-linejoin:round;stroke-miterlimit:4;stroke-dasharray:none;stroke-opacity:1" />
    </g>
  </g>
</svg>
