<svg xmlns="http://www.w3.org/2000/svg" width="48" height="48" viewBox="0 0 48 48"><title>Edge_Solid_48</title><path d="M43.988,37.27667c.34155-.50567.69079-.96362.21435-1.44012-.44165-.44184-.82739-.13733-1.28283.0791a18.49183,18.49183,0,0,1-8.45386,1.89661c-8.06262,0-16.4635-5.77424-16.46778-13.93164A14.32917,14.32917,0,0,0,14.71521,33.067c0,7.68273,5.91907,13.9331,13.19446,13.9331a18.00366,18.00366,0,0,0,6.26965-1.24683A24.70117,24.70117,0,0,0,43.988,37.27667Z"/><path d="M20.4447,19.18677a5.92515,5.92515,0,0,1,3.57239-1.19757,5.7632,5.7632,0,0,1,1.81335.29052c-2.48461-2.99566-6.859-4.988-11.83044-4.988-7.71118,0-13.98633,4.79339-13.99976,10.68914L0,24.00781c0,10.87372,8.22021,23.098,22.48083,23.945A15.93337,15.93337,0,0,1,12.71521,33.067,16.06992,16.06992,0,0,1,20.4447,19.18677Z"/><path d="M23.89832,0C11.77087,0,4.35474,7.93542,1.43274,16.13391A17.73943,17.73943,0,0,1,14,11.29169c8.83655,0,16,5.68969,16,12.70831h-.00586a6.08791,6.08791,0,0,1-1.40308,3.85315c-.37988.4353-.64892.68774-.64892,1.10321,0,.86389,1.52319,3.0069,8.57373,3.0069A11.52082,11.52082,0,0,0,48,20.40662C48,11.52039,39.64941,0,23.89832,0Z"/></svg>
